{
  "accessors": [
    {
      "name": "Circle006_1_0_positions",
      "componentType": 5126,
      "count": 210,
      "min": [
        -0.8971999883651733,
        0,
        -0.8971999883651733
      ],
      "max": [
        0.8971999883651733,
        2.6159000396728516,
        0.8971999883651733
      ],
      "type": "VEC3",
      "bufferView": 0,
      "byteOffset": 0
    },
    {
      "name": "Circle006_1_0_normals",
      "componentType": 5126,
      "count": 210,
      "min": [
        -1,
        -1,
        -1
      ],
      "max": [
        1,
        1,
        1
      ],
      "type": "VEC3",
      "bufferView": 1,
      "byteOffset": 0
    },
    {
      "name": "Circle006_1_0_texcoords",
      "componentType": 5126,
      "count": 210,
      "min": [
        0,
        0.3312999904155731
      ],
      "max": [
        1.0546000003814697,
        0.9448000192642212
      ],
      "type": "VEC2",
      "bufferView": 2,
      "byteOffset": 0
    },
    {
      "name": "Circle006_1_0_indices",
      "componentType": 5123,
      "count": 612,
      "min": [
        0
      ],
      "max": [
        209
      ],
      "type": "SCALAR",
      "bufferView": 3,
      "byteOffset": 0
    },
    {
      "name": "Circle004_1_0_positions",
      "componentType": 5126,
      "count": 424,
      "min": [
        -1.2000000476837158,
        0,
        -1.2000000476837158
      ],
      "max": [
        1.2000000476837158,
        2.9000000953674316,
        1.2000000476837158
      ],
      "type": "VEC3",
      "bufferView": 0,
      "byteOffset": 2520
    },
    {
      "name": "Circle004_1_0_normals",
      "componentType": 5126,
      "count": 424,
      "min": [
        -1,
        -1,
        -1
      ],
      "max": [
        1,
        1,
        1
      ],
      "type": "VEC3",
      "bufferView": 1,
      "byteOffset": 2520
    },
    {
      "name": "Circle004_1_0_texcoords",
      "componentType": 5126,
      "count": 424,
      "min": [
        -0.014999999664723873,
        0.0551999993622303
      ],
      "max": [
        1,
        0.9448000192642212
      ],
      "type": "VEC2",
      "bufferView": 2,
      "byteOffset": 1680
    },
    {
      "name": "Circle004_1_0_indices",
      "componentType": 5123,
      "count": 1248,
      "min": [
        0
      ],
      "max": [
        423
      ],
      "type": "SCALAR",
      "bufferView": 3,
      "byteOffset": 1224
    }
  ],
  "asset": {
    "generator": "obj2gltf",
    "version": "2.0"
  },
  "buffers": [
    {
      "name": "1",
      "byteLength": 55528,
      "uri": "data:application/octet-stream;base64,"
    }
  ],
  "bufferViews": [
    {
      "name": "bufferView_0",
      "buffer": 0,
      "byteLength": 7608,
      "byteOffset": 0,
      "byteStride": 12,
      "target": 34962
    },
    {
      "name": "bufferView_1",
      "buffer": 0,
      "byteLength": 7608,
      "byteOffset": 7608,
      "byteStride": 12,
      "target": 34962
    },
    {
      "name": "bufferView_2",
      "buffer": 0,
      "byteLength": 5072,
      "byteOffset": 15216,
      "byteStride": 8,
      "target": 34962
    },
    {
      "name": "bufferView_3",
      "buffer": 0,
      "byteLength": 3720,
      "byteOffset": 20288,
      "target": 34963
    },
    {
      "buffer": 0,
      "byteOffset": 24008,
      "byteLength": 15825
    },
    {
      "buffer": 0,
      "byteOffset": 39833,
      "byteLength": 15693
    }
  ],
  "images": [
    {
      "name": "4",
      "mimeType": "image/jpeg",
      "bufferView": 4
    },
    {
      "name": "2",
      "mimeType": "image/jpeg",
      "bufferView": 5
    }
  ],
  "materials": [
    {
      "name": "08___Dryr",
      "pbrMetallicRoughness": {
        "baseColorTexture": {
          "index": 0
        },
        "baseColorFactor": [
          1,
          1,
          1,
          1
        ],
        "metallicFactor": 0,
        "roughnessFactor": 0.99
      },
      "emissiveFactor": [
        0,
        0,
        0
      ],
      "alphaMode": "OPAQUE",
      "doubleSided": false
    },
    {
      "name": "08___Default",
      "pbrMetallicRoughness": {
        "baseColorTexture": {
          "index": 1
        },
        "baseColorFactor": [
          1,
          1,
          1,
          1
        ],
        "metallicFactor": 0,
        "roughnessFactor": 0.99
      },
      "emissiveFactor": [
        0,
        0,
        0
      ],
      "alphaMode": "OPAQUE",
      "doubleSided": false
    }
  ],
  "meshes": [
    {
      "name": "Circle006_1",
      "primitives": [
        {
          "attributes": {
            "POSITION": 0,
            "NORMAL": 1,
            "TEXCOORD_0": 2
          },
          "indices": 3,
          "material": 0,
          "mode": 4
        }
      ]
    },
    {
      "name": "Circle004_1",
      "primitives": [
        {
          "attributes": {
            "POSITION": 4,
            "NORMAL": 5,
            "TEXCOORD_0": 6
          },
          "indices": 7,
          "material": 1,
          "mode": 4
        }
      ]
    }
  ],
  "nodes": [
    {
      "name": "Circle006",
      "mesh": 0
    },
    {
      "name": "Circle004",
      "mesh": 1
    }
  ],
  "samplers": [
    {
      "magFilter": 9729,
      "minFilter": 9986,
      "wrapS": 10497,
      "wrapT": 10497
    }
  ],
  "scene": 0,
  "scenes": [
    {
      "nodes": [
        0,
        1
      ]
    }
  ],
  "textures": [
    {
      "name": "4",
      "sampler": 0,
      "source": 0
    },
    {
      "name": "2",
      "sampler": 0,
      "source": 1
    }
  ]
}
