{
  "accessors": [
    {
      "name": "Rectangle003_1_0_positions",
      "componentType": 5126,
      "count": 36,
      "min": [
        -6.242700099945068,
        -27.43000030517578,
        -3.6041998863220215
      ],
      "max": [
        6.242700099945068,
        -27.329999923706055,
        7.208399772644043
      ],
      "type": "VEC3",
      "bufferView": 0,
      "byteOffset": 0
    },
    {
      "name": "Rectangle003_1_0_normals",
      "componentType": 5126,
      "count": 36,
      "min": [
        -0.866019070148468,
        -1,
        -1
      ],
      "max": [
        0.866019070148468,
        1,
        1
      ],
      "type": "VEC3",
      "bufferView": 1,
      "byteOffset": 0
    },
    {
      "name": "Rectangle003_1_0_indices",
      "componentType": 5123,
      "count": 72,
      "min": [
        0
      ],
      "max": [
        35
      ],
      "type": "SCALAR",
      "bufferView": 3,
      "byteOffset": 0
    },
    {
      "name": "Cone003_1_0_positions",
      "componentType": 5126,
      "count": 765,
      "min": [
        -7.550300121307373,
        -47.884498596191406,
        -7.550300121307373
      ],
      "max": [
        7.550300121307373,
        -27.43000030517578,
        7.550300121307373
      ],
      "type": "VEC3",
      "bufferView": 0,
      "byteOffset": 432
    },
    {
      "name": "Cone003_1_0_normals",
      "componentType": 5126,
      "count": 765,
      "min": [
        -0.9977731704711914,
        -0.3511124849319458,
        -0.9977731704711914
      ],
      "max": [
        1,
        0.9992475509643555,
        0.9977731704711914
      ],
      "type": "VEC3",
      "bufferView": 1,
      "byteOffset": 432
    },
    {
      "name": "Cone003_1_0_texcoords",
      "componentType": 5126,
      "count": 765,
      "min": [
        0.027799999341368675,
        0
      ],
      "max": [
        2,
        0.9789000153541565
      ],
      "type": "VEC2",
      "bufferView": 2,
      "byteOffset": 0
    },
    {
      "name": "Cone003_1_0_indices",
      "componentType": 5123,
      "count": 2616,
      "min": [
        0
      ],
      "max": [
        764
      ],
      "type": "SCALAR",
      "bufferView": 3,
      "byteOffset": 144
    }
  ],
  "asset": {
    "generator": "obj2gltf",
    "version": "2.0"
  },
  "buffers": [
    {
      "name": "1",
      "byteLength": 30720,
      "uri": "data:application/octet-stream;base64,"
    }
  ],
  "bufferViews": [
    {
      "name": "bufferView_0",
      "buffer": 0,
      "byteLength": 9612,
      "byteOffset": 0,
      "byteStride": 12,
      "target": 34962
    },
    {
      "name": "bufferView_1",
      "buffer": 0,
      "byteLength": 9612,
      "byteOffset": 9612,
      "byteStride": 12,
      "target": 34962
    },
    {
      "name": "bufferView_2",
      "buffer": 0,
      "byteLength": 6120,
      "byteOffset": 19224,
      "byteStride": 8,
      "target": 34962
    },
    {
      "name": "bufferView_3",
      "buffer": 0,
      "byteLength": 5376,
      "byteOffset": 25344,
      "target": 34963
    }
  ],
  "materials": [
    {
      "name": "01___Default",
      "pbrMetallicRoughness": {
        "baseColorFactor": [
          0.0118,
          0.0118,
          0.0118,
          1
        ],
        "metallicFactor": 0,
        "roughnessFactor": 0.99
      },
      "emissiveFactor": [
        0,
        0,
        0
      ],
      "alphaMode": "OPAQUE",
      "doubleSided": false
    },
    {
      "name": "07___Default",
      "pbrMetallicRoughness": {
        "baseColorFactor": [
          0.949,
          0.949,
          0.949,
          1
        ],
        "metallicFactor": 0,
        "roughnessFactor": 0.99
      },
      "emissiveFactor": [
        0,
        0,
        0
      ],
      "alphaMode": "OPAQUE",
      "doubleSided": false
    }
  ],
  "meshes": [
    {
      "name": "Rectangle003_1",
      "primitives": [
        {
          "attributes": {
            "POSITION": 0,
            "NORMAL": 1
          },
          "indices": 2,
          "material": 0,
          "mode": 4
        }
      ]
    },
    {
      "name": "Cone003_1",
      "primitives": [
        {
          "attributes": {
            "POSITION": 3,
            "NORMAL": 4,
            "TEXCOORD_0": 5
          },
          "indices": 6,
          "material": 1,
          "mode": 4
        }
      ]
    }
  ],
  "nodes": [
    {
      "name": "Rectangle003",
      "mesh": 0
    },
    {
      "name": "Cone003",
      "mesh": 1
    }
  ],
  "scene": 0,
  "scenes": [
    {
      "nodes": [
        0,
        1
      ]
    }
  ]
}
