{"asset":{"generator":"COLLADA2GLTF","version":"2.0"},"scenes":[{"nodes":[0]}],"scene":0,"nodes":[{"children":[6,5,4,3,2,1],"matrix":[1,0,0,0,0,0,-1,0,0,1,0,0,0,0,0,1],"name":"Z_UP"},{"mesh":0,"matrix":[1,0,0,0,0,-1.3311316138242546e-7,1,0,0,-1,-1.3311316138242546e-7,0,0,0.05000000074505806,-0.05000000074505806,1],"name":"YAxis_1"},{"mesh":1,"matrix":[-1.3311316138242546e-7,0,-1,0,0,1,0,0,1,0,-1.3311316138242546e-7,0,-0.05000000074505806,0,-0.05000000074505806,1],"name":"XAxis_1"},{"mesh":2,"matrix":[1,0,0,0,0,-1.3311316138242546e-7,1,0,0,-1,-1.3311316138242546e-7,0,0,2,0,1],"name":"YArrow_1"},{"mesh":3,"matrix":[-1.3311316138242546e-7,0,-1,0,0,1,0,0,1,0,-1.3311316138242546e-7,0,-2,0,0,1],"name":"XArrow_1"},{"mesh":4,"matrix":[1,0,0,0,0,1,0,0,0,0,1,0,0,0,-2,1],"name":"ZArrow_1"},{"mesh":5,"matrix":[1,0,0,0,0,1,0,0,0,0,1,0,0,0,-0.05000000074505806,1],"name":"ZAxis_1"}],"meshes":[{"primitives":[{"attributes":{"NORMAL":1,"POSITION":2},"indices":0,"mode":4,"material":0}],"name":"YAxis_1"},{"primitives":[{"attributes":{"NORMAL":4,"POSITION":5},"indices":3,"mode":4,"material":1}],"name":"XAxis_1"},{"primitives":[{"attributes":{"NORMAL":7,"POSITION":8},"indices":6,"mode":4,"material":2}],"name":"YArrow_1"},{"primitives":[{"attributes":{"NORMAL":10,"POSITION":11},"indices":9,"mode":4,"material":3}],"name":"XArrow_1"},{"primitives":[{"attributes":{"NORMAL":13,"POSITION":14},"indices":12,"mode":4,"material":4}],"name":"ZArrow_1"},{"primitives":[{"attributes":{"NORMAL":16,"POSITION":17},"indices":15,"mode":4,"material":5}],"name":"ZAxis_1"}],"accessors":[{"bufferView":0,"byteOffset":0,"componentType":5123,"count":2160,"max":[491],"min":[0],"type":"SCALAR"},{"bufferView":1,"byteOffset":0,"componentType":5126,"count":492,"max":[0.9945219159126282,1,1],"min":[-0.994521975517273,-1,-1],"type":"VEC3"},{"bufferView":1,"byteOffset":5904,"componentType":5126,"count":492,"max":[1.790139079093933,1.8000000715255737,0.10000000149011612],"min":[-1.790139079093933,-1.8000000715255737,0],"type":"VEC3"},{"bufferView":0,"byteOffset":4320,"componentType":5123,"count":2160,"max":[491],"min":[0],"type":"SCALAR"},{"bufferView":1,"byteOffset":11808,"componentType":5126,"count":492,"max":[0.9945219159126282,1,1],"min":[-0.994521975517273,-1,-1],"type":"VEC3"},{"bufferView":1,"byteOffset":17712,"componentType":5126,"count":492,"max":[1.790139079093933,1.8000000715255737,0.10000000149011612],"min":[-1.790139079093933,-1.8000000715255737,0],"type":"VEC3"},{"bufferView":0,"byteOffset":8640,"componentType":5123,"count":2052,"max":[474],"min":[0],"type":"SCALAR"},{"bufferView":1,"byteOffset":23616,"componentType":5126,"count":475,"max":[1,0.9510568380355835,1],"min":[-1,-0.9510568380355835,-1],"type":"VEC3"},{"bufferView":1,"byteOffset":29316,"componentType":5126,"count":475,"max":[0.05000000074505806,0.05000000074505806,4.100000381469727],"min":[-0.05000000074505806,-0.05000000074505806,-0.10000000149011612],"type":"VEC3"},{"bufferView":0,"byteOffset":12744,"componentType":5123,"count":2052,"max":[474],"min":[0],"type":"SCALAR"},{"bufferView":1,"byteOffset":35016,"componentType":5126,"count":475,"max":[1,0.9510568380355835,1],"min":[-1,-0.9510568380355835,-1],"type":"VEC3"},{"bufferView":1,"byteOffset":40716,"componentType":5126,"count":475,"max":[0.05000000074505806,0.05000000074505806,4.100000381469727],"min":[-0.05000000074505806,-0.05000000074505806,-0.10000000149011612],"type":"VEC3"},{"bufferView":0,"byteOffset":16848,"componentType":5123,"count":2052,"max":[474],"min":[0],"type":"SCALAR"},{"bufferView":1,"byteOffset":46416,"componentType":5126,"count":475,"max":[1,0.9510568380355835,1],"min":[-1,-0.9510568380355835,-1],"type":"VEC3"},{"bufferView":1,"byteOffset":52116,"componentType":5126,"count":475,"max":[0.05000000074505806,0.05000000074505806,4.100000381469727],"min":[-0.05000000074505806,-0.05000000074505806,-0.10000000149011612],"type":"VEC3"},{"bufferView":0,"byteOffset":20952,"componentType":5123,"count":2160,"max":[491],"min":[0],"type":"SCALAR"},{"bufferView":1,"byteOffset":57816,"componentType":5126,"count":492,"max":[0.9945219159126282,1,1],"min":[-0.994521975517273,-1,-1],"type":"VEC3"},{"bufferView":1,"byteOffset":63720,"componentType":5126,"count":492,"max":[1.790139079093933,1.8000000715255737,0.10000000149011612],"min":[-1.790139079093933,-1.8000000715255737,0],"type":"VEC3"}],"materials":[{"pbrMetallicRoughness":{"baseColorFactor":[0.023529410362243652,0.529411792755127,0.023529410362243652,1],"metallicFactor":0,"roughnessFactor":1},"name":"ColorEffectR6G135B6","emissiveFactor":[0,0,0],"alphaMode":"OPAQUE","doubleSided":false},{"pbrMetallicRoughness":{"baseColorFactor":[0.529411792755127,0.023529410362243652,0.023529410362243652,1],"metallicFactor":0,"roughnessFactor":1},"name":"ColorEffectR135G6B6","emissiveFactor":[0,0,0],"alphaMode":"OPAQUE","doubleSided":false},{"pbrMetallicRoughness":{"baseColorFactor":[0.023529410362243652,0.529411792755127,0.023529410362243652,1],"metallicFactor":0,"roughnessFactor":1},"name":"ColorEffectR6G135B6","emissiveFactor":[0,0,0],"alphaMode":"OPAQUE","doubleSided":false},{"pbrMetallicRoughness":{"baseColorFactor":[0.529411792755127,0.023529410362243652,0.023529410362243652,1],"metallicFactor":0,"roughnessFactor":1},"name":"ColorEffectR135G6B6","emissiveFactor":[0,0,0],"alphaMode":"OPAQUE","doubleSided":false},{"pbrMetallicRoughness":{"baseColorFactor":[0.027450980618596077,0.027450980618596077,0.9058824181556702,1],"metallicFactor":0,"roughnessFactor":1},"name":"ColorEffectR7G7B231","emissiveFactor":[0,0,0],"alphaMode":"OPAQUE","doubleSided":false},{"pbrMetallicRoughness":{"baseColorFactor":[0.027450980618596077,0.027450980618596077,0.9058824181556702,1],"metallicFactor":0,"roughnessFactor":1},"name":"ColorEffectR7G7B231","emissiveFactor":[0,0,0],"alphaMode":"OPAQUE","doubleSided":false}],"bufferViews":[{"buffer":0,"byteOffset":69624,"byteLength":25272,"target":34963},{"buffer":0,"byteOffset":0,"byteLength":69624,"byteStride":12,"target":34962}],"buffers":[{"byteLength":94896,"uri":"data:application/octet-stream;base64,"}]}
