{
    "asset" : {
        "generator" : "Khronos glTF Blender I/O v1.4.40",
        "version" : "2.0"
    },
    "scene" : 0,
    "scenes" : [
        {
            "name" : "Scene",
            "nodes" : [
                6,
                7,
                8
            ]
        }
    ],
    "nodes" : [
        {
            "mesh" : 0,
            "name" : "XArrow_1",
            "rotation" : [
                0,
                0.7071068286895752,
                0,
                0.7071067094802856
            ],
            "translation" : [
                -2,
                0,
                0
            ]
        },
        {
            "mesh" : 1,
            "name" : "XAxis_1",
            "rotation" : [
                0,
                0.7071068286895752,
                0,
                0.7071067094802856
            ],
            "translation" : [
                -0.05000000074505806,
                0,
                -0.05000000074505806
            ]
        },
        {
            "mesh" : 2,
            "name" : "YArrow_1",
            "rotation" : [
                0.7071068286895752,
                0,
                0,
                0.7071067094802856
            ],
            "translation" : [
                0,
                2,
                0
            ]
        },
        {
            "mesh" : 3,
            "name" : "YAxis_1",
            "rotation" : [
                0.7071068286895752,
                0,
                0,
                0.7071067094802856
            ],
            "translation" : [
                0,
                0.05000000074505806,
                -0.05000000074505806
            ]
        },
        {
            "mesh" : 4,
            "name" : "ZArrow_1",
            "translation" : [
                0,
                0,
                -2
            ]
        },
        {
            "mesh" : 5,
            "name" : "ZAxis_1",
            "translation" : [
                0,
                0,
                -0.05000000074505806
            ]
        },
        {
            "children" : [
                0,
                1,
                2,
                3,
                4,
                5
            ],
            "name" : "Z_UP",
            "rotation" : [
                -0.7071068286895752,
                0,
                0,
                0.7071068286895752
            ]
        },
        {
            "name" : "Light",
            "rotation" : [
                0.16907575726509094,
                0.7558803558349609,
                -0.27217137813568115,
                0.570947527885437
            ],
            "translation" : [
                4.076245307922363,
                5.903861999511719,
                -1.0054539442062378
            ]
        },
        {
            "name" : "Camera",
            "rotation" : [
                0.483536034822464,
                0.33687159419059753,
                -0.20870360732078552,
                0.7804827094078064
            ],
            "translation" : [
                7.358891487121582,
                4.958309173583984,
                6.925790786743164
            ]
        }
    ],
    "materials" : [
        {
            "name" : "ColorEffectR135G6B6",
            "pbrMetallicRoughness" : {
                "baseColorFactor" : [
                    0.529411792755127,
                    0.023529410362243652,
                    0.023529410362243652,
                    1
                ],
                "metallicFactor" : 0
            }
        },
        {
            "name" : "ColorEffectR135G6B6.001",
            "pbrMetallicRoughness" : {
                "baseColorFactor" : [
                    0,
                    0.529411792755127,
                    0.01786111108958721,
                    1
                ],
                "metallicFactor" : 0,
                "roughnessFactor" : 0.4000000059604645
            }
        },
        {
            "name" : "ColorEffectR6G135B6",
            "pbrMetallicRoughness" : {
                "baseColorFactor" : [
                    0.023529410362243652,
                    0.529411792755127,
                    0.023529410362243652,
                    1
                ],
                "metallicFactor" : 0
            }
        },
        {
            "name" : "ColorEffectR6G135B6.001",
            "pbrMetallicRoughness" : {
                "baseColorFactor" : [
                    0.529411792755127,
                    0,
                    0.0006717912037856877,
                    1
                ],
                "metallicFactor" : 0,
                "roughnessFactor" : 0.4000000059604645
            }
        },
        {
            "name" : "ColorEffectR7G7B231.001",
            "pbrMetallicRoughness" : {
                "baseColorFactor" : [
                    0.027450980618596077,
                    0.027450980618596077,
                    0.9058824181556702,
                    1
                ],
                "metallicFactor" : 0
            }
        },
        {
            "name" : "ColorEffectR7G7B231",
            "pbrMetallicRoughness" : {
                "baseColorFactor" : [
                    0.027450980618596077,
                    0.027450980618596077,
                    0.9058824181556702,
                    1
                ],
                "metallicFactor" : 0
            }
        }
    ],
    "meshes" : [
        {
            "name" : "XArrow_1",
            "primitives" : [
                {
                    "attributes" : {
                        "POSITION" : 0,
                        "NORMAL" : 1
                    },
                    "indices" : 2,
                    "material" : 0
                }
            ]
        },
        {
            "name" : "XAxis_1",
            "primitives" : [
                {
                    "attributes" : {
                        "POSITION" : 3,
                        "NORMAL" : 4
                    },
                    "indices" : 5,
                    "material" : 1
                }
            ]
        },
        {
            "name" : "YArrow_1",
            "primitives" : [
                {
                    "attributes" : {
                        "POSITION" : 6,
                        "NORMAL" : 7
                    },
                    "indices" : 2,
                    "material" : 2
                }
            ]
        },
        {
            "name" : "YAxis_1",
            "primitives" : [
                {
                    "attributes" : {
                        "POSITION" : 8,
                        "NORMAL" : 9
                    },
                    "indices" : 5,
                    "material" : 3
                }
            ]
        },
        {
            "name" : "ZArrow_1",
            "primitives" : [
                {
                    "attributes" : {
                        "POSITION" : 10,
                        "NORMAL" : 11
                    },
                    "indices" : 2,
                    "material" : 4
                }
            ]
        },
        {
            "name" : "ZAxis_1",
            "primitives" : [
                {
                    "attributes" : {
                        "POSITION" : 12,
                        "NORMAL" : 13
                    },
                    "indices" : 5,
                    "material" : 5
                }
            ]
        }
    ],
    "accessors" : [
        {
            "bufferView" : 0,
            "componentType" : 5126,
            "count" : 536,
            "max" : [
                0.05000000074505806,
                0.05000000074505806,
                4.100000381469727
            ],
            "min" : [
                -0.05000000074505806,
                -0.05000000074505806,
                -0.10000000149011612
            ],
            "type" : "VEC3"
        },
        {
            "bufferView" : 1,
            "componentType" : 5126,
            "count" : 536,
            "type" : "VEC3"
        },
        {
            "bufferView" : 2,
            "componentType" : 5123,
            "count" : 2025,
            "type" : "SCALAR"
        },
        {
            "bufferView" : 3,
            "componentType" : 5126,
            "count" : 595,
            "max" : [
                1.790139079093933,
                1.8000000715255737,
                0.10000000149011612
            ],
            "min" : [
                -1.790139079093933,
                -1.8000000715255737,
                0
            ],
            "type" : "VEC3"
        },
        {
            "bufferView" : 4,
            "componentType" : 5126,
            "count" : 595,
            "type" : "VEC3"
        },
        {
            "bufferView" : 5,
            "componentType" : 5123,
            "count" : 2160,
            "type" : "SCALAR"
        },
        {
            "bufferView" : 6,
            "componentType" : 5126,
            "count" : 536,
            "max" : [
                0.05000000074505806,
                0.05000000074505806,
                4.100000381469727
            ],
            "min" : [
                -0.05000000074505806,
                -0.05000000074505806,
                -0.10000000149011612
            ],
            "type" : "VEC3"
        },
        {
            "bufferView" : 7,
            "componentType" : 5126,
            "count" : 536,
            "type" : "VEC3"
        },
        {
            "bufferView" : 8,
            "componentType" : 5126,
            "count" : 595,
            "max" : [
                1.790139079093933,
                1.8000000715255737,
                0.10000000149011612
            ],
            "min" : [
                -1.790139079093933,
                -1.8000000715255737,
                0
            ],
            "type" : "VEC3"
        },
        {
            "bufferView" : 9,
            "componentType" : 5126,
            "count" : 595,
            "type" : "VEC3"
        },
        {
            "bufferView" : 10,
            "componentType" : 5126,
            "count" : 536,
            "max" : [
                0.05000000074505806,
                0.05000000074505806,
                4.100000381469727
            ],
            "min" : [
                -0.05000000074505806,
                -0.05000000074505806,
                -0.10000000149011612
            ],
            "type" : "VEC3"
        },
        {
            "bufferView" : 11,
            "componentType" : 5126,
            "count" : 536,
            "type" : "VEC3"
        },
        {
            "bufferView" : 12,
            "componentType" : 5126,
            "count" : 595,
            "max" : [
                1.790139079093933,
                1.8000000715255737,
                0.10000000149011612
            ],
            "min" : [
                -1.790139079093933,
                -1.8000000715255737,
                0
            ],
            "type" : "VEC3"
        },
        {
            "bufferView" : 13,
            "componentType" : 5126,
            "count" : 595,
            "type" : "VEC3"
        }
    ],
    "bufferViews" : [
        {
            "buffer" : 0,
            "byteLength" : 6432,
            "byteOffset" : 0
        },
        {
            "buffer" : 0,
            "byteLength" : 6432,
            "byteOffset" : 6432
        },
        {
            "buffer" : 0,
            "byteLength" : 4050,
            "byteOffset" : 12864
        },
        {
            "buffer" : 0,
            "byteLength" : 7140,
            "byteOffset" : 16916
        },
        {
            "buffer" : 0,
            "byteLength" : 7140,
            "byteOffset" : 24056
        },
        {
            "buffer" : 0,
            "byteLength" : 4320,
            "byteOffset" : 31196
        },
        {
            "buffer" : 0,
            "byteLength" : 6432,
            "byteOffset" : 35516
        },
        {
            "buffer" : 0,
            "byteLength" : 6432,
            "byteOffset" : 41948
        },
        {
            "buffer" : 0,
            "byteLength" : 7140,
            "byteOffset" : 48380
        },
        {
            "buffer" : 0,
            "byteLength" : 7140,
            "byteOffset" : 55520
        },
        {
            "buffer" : 0,
            "byteLength" : 6432,
            "byteOffset" : 62660
        },
        {
            "buffer" : 0,
            "byteLength" : 6432,
            "byteOffset" : 69092
        },
        {
            "buffer" : 0,
            "byteLength" : 7140,
            "byteOffset" : 75524
        },
        {
            "buffer" : 0,
            "byteLength" : 7140,
            "byteOffset" : 82664
        }
    ],
    "buffers" : [
        {
            "byteLength" : 89804,
            "uri" : "data:application/octet-stream;base64,"
        }
    ]
}
