{
  "accessors": [
    {
      "name": "Box003_1_0_positions",
      "componentType": 5126,
      "count": 41,
      "min": [
        -10.491299629211426,
        0,
        0.10729999840259552
      ],
      "max": [
        2.0051000118255615,
        181.48699951171875,
        12.603799819946289
      ],
      "type": "VEC3",
      "bufferView": 0,
      "byteOffset": 0
    },
    {
      "name": "Box003_1_0_normals",
      "componentType": 5126,
      "count": 41,
      "min": [
        -1,
        -1,
        -1
      ],
      "max": [
        1,
        1,
        1
      ],
      "type": "VEC3",
      "bufferView": 1,
      "byteOffset": 0
    },
    {
      "name": "Box003_1_0_texcoords",
      "componentType": 5126,
      "count": 41,
      "min": [
        0,
        0
      ],
      "max": [
        1,
        1
      ],
      "type": "VEC2",
      "bufferView": 2,
      "byteOffset": 0
    },
    {
      "name": "Box003_1_0_indices",
      "componentType": 5123,
      "count": 60,
      "min": [
        0
      ],
      "max": [
        40
      ],
      "type": "SCALAR",
      "bufferView": 3,
      "byteOffset": 0
    },
    {
      "name": "Box002_1_0_positions",
      "componentType": 5126,
      "count": 41,
      "min": [
        -10.491299629211426,
        -1.2482000589370728,
        -180.13150024414062
      ],
      "max": [
        2.0051000118255615,
        11.248200416564941,
        1.3554999828338623
      ],
      "type": "VEC3",
      "bufferView": 0,
      "byteOffset": 492
    },
    {
      "name": "Box002_1_0_normals",
      "componentType": 5126,
      "count": 41,
      "min": [
        -1,
        -1,
        -1
      ],
      "max": [
        1,
        1,
        1
      ],
      "type": "VEC3",
      "bufferView": 1,
      "byteOffset": 492
    },
    {
      "name": "Box002_1_0_texcoords",
      "componentType": 5126,
      "count": 41,
      "min": [
        0,
        0
      ],
      "max": [
        1,
        1
      ],
      "type": "VEC2",
      "bufferView": 2,
      "byteOffset": 328
    },
    {
      "name": "Box002_1_0_indices",
      "componentType": 5123,
      "count": 60,
      "min": [
        0
      ],
      "max": [
        40
      ],
      "type": "SCALAR",
      "bufferView": 3,
      "byteOffset": 120
    },
    {
      "name": "Box001_1_0_positions",
      "componentType": 5126,
      "count": 41,
      "min": [
        0.7569000124931335,
        -1.2482000589370728,
        0.10729999840259552
      ],
      "max": [
        182.24400329589844,
        11.248200416564941,
        12.603799819946289
      ],
      "type": "VEC3",
      "bufferView": 0,
      "byteOffset": 984
    },
    {
      "name": "Box001_1_0_normals",
      "componentType": 5126,
      "count": 41,
      "min": [
        -1,
        -1,
        -1
      ],
      "max": [
        1,
        1,
        1
      ],
      "type": "VEC3",
      "bufferView": 1,
      "byteOffset": 984
    },
    {
      "name": "Box001_1_0_texcoords",
      "componentType": 5126,
      "count": 41,
      "min": [
        0,
        0
      ],
      "max": [
        1,
        1
      ],
      "type": "VEC2",
      "bufferView": 2,
      "byteOffset": 656
    },
    {
      "name": "Box001_1_0_indices",
      "componentType": 5123,
      "count": 60,
      "min": [
        0
      ],
      "max": [
        40
      ],
      "type": "SCALAR",
      "bufferView": 3,
      "byteOffset": 240
    },
    {
      "name": "Text003_1_0_positions",
      "componentType": 5126,
      "count": 60,
      "min": [
        -17.263700485229492,
        187.62660217285156,
        3.600600004196167
      ],
      "max": [
        5.371200084686279,
        217.1887969970703,
        7.467899799346924
      ],
      "type": "VEC3",
      "bufferView": 0,
      "byteOffset": 1476
    },
    {
      "name": "Text003_1_0_normals",
      "componentType": 5126,
      "count": 60,
      "min": [
        -1,
        -1,
        -1
      ],
      "max": [
        1,
        1,
        1
      ],
      "type": "VEC3",
      "bufferView": 1,
      "byteOffset": 1476
    },
    {
      "name": "Text003_1_0_texcoords",
      "componentType": 5126,
      "count": 60,
      "min": [
        0,
        0
      ],
      "max": [
        1,
        1
      ],
      "type": "VEC2",
      "bufferView": 2,
      "byteOffset": 984
    },
    {
      "name": "Text003_1_0_indices",
      "componentType": 5123,
      "count": 108,
      "min": [
        0
      ],
      "max": [
        59
      ],
      "type": "SCALAR",
      "bufferView": 3,
      "byteOffset": 360
    },
    {
      "name": "Text001_1_0_positions",
      "componentType": 5126,
      "count": 204,
      "min": [
        185.3657989501953,
        -11.53600025177002,
        3.088599920272827
      ],
      "max": [
        210.07090759277344,
        18.715299606323242,
        7.04610013961792
      ],
      "type": "VEC3",
      "bufferView": 0,
      "byteOffset": 2196
    },
    {
      "name": "Text001_1_0_normals",
      "componentType": 5126,
      "count": 204,
      "min": [
        -0.9321809411048889,
        -1,
        -1
      ],
      "max": [
        0.947516918182373,
        1,
        1
      ],
      "type": "VEC3",
      "bufferView": 1,
      "byteOffset": 2196
    },
    {
      "name": "Text001_1_0_texcoords",
      "componentType": 5126,
      "count": 204,
      "min": [
        0,
        0
      ],
      "max": [
        1,
        1
      ],
      "type": "VEC2",
      "bufferView": 2,
      "byteOffset": 1464
    },
    {
      "name": "Text001_1_0_indices",
      "componentType": 5123,
      "count": 492,
      "min": [
        0
      ],
      "max": [
        203
      ],
      "type": "SCALAR",
      "bufferView": 3,
      "byteOffset": 576
    },
    {
      "name": "Text002_1_0_positions",
      "componentType": 5126,
      "count": 96,
      "min": [
        -16.541500091552734,
        -12.569700241088867,
        -201.2135009765625
      ],
      "max": [
        4.648900032043457,
        21.920400619506836,
        -197.65879821777344
      ],
      "type": "VEC3",
      "bufferView": 0,
      "byteOffset": 4644
    },
    {
      "name": "Text002_1_0_normals",
      "componentType": 5126,
      "count": 96,
      "min": [
        -1,
        -1,
        -1
      ],
      "max": [
        1,
        1,
        1
      ],
      "type": "VEC3",
      "bufferView": 1,
      "byteOffset": 4644
    },
    {
      "name": "Text002_1_0_texcoords",
      "componentType": 5126,
      "count": 96,
      "min": [
        0,
        0
      ],
      "max": [
        1,
        1
      ],
      "type": "VEC2",
      "bufferView": 2,
      "byteOffset": 3096
    },
    {
      "name": "Text002_1_0_indices",
      "componentType": 5123,
      "count": 204,
      "min": [
        0
      ],
      "max": [
        95
      ],
      "type": "SCALAR",
      "bufferView": 3,
      "byteOffset": 1560
    }
  ],
  "asset": {
    "generator": "obj2gltf",
    "version": "2.0"
  },
  "buffers": [
    {
      "name": "1",
      "byteLength": 822716,
      "uri": "data:application/octet-stream;base64,"
    }
  ],
  "bufferViews": [
    {
      "name": "bufferView_0",
      "buffer": 0,
      "byteLength": 5796,
      "byteOffset": 0,
      "byteStride": 12,
      "target": 34962
    },
    {
      "name": "bufferView_1",
      "buffer": 0,
      "byteLength": 5796,
      "byteOffset": 5796,
      "byteStride": 12,
      "target": 34962
    },
    {
      "name": "bufferView_2",
      "buffer": 0,
      "byteLength": 3864,
      "byteOffset": 11592,
      "byteStride": 8,
      "target": 34962
    },
    {
      "name": "bufferView_3",
      "buffer": 0,
      "byteLength": 1968,
      "byteOffset": 15456,
      "target": 34963
    },
    {
      "buffer": 0,
      "byteOffset": 17424,
      "byteLength": 4105
    },
    {
      "buffer": 0,
      "byteOffset": 21529,
      "byteLength": 400395
    },
    {
      "buffer": 0,
      "byteOffset": 421924,
      "byteLength": 400789
    }
  ],
  "images": [
    {
      "name": "yellow",
      "mimeType": "image/jpeg",
      "bufferView": 4
    },
    {
      "name": "lv",
      "mimeType": "image/jpeg",
      "bufferView": 5
    },
    {
      "name": "hs",
      "mimeType": "image/jpeg",
      "bufferView": 6
    }
  ],
  "materials": [
    {
      "name": "01___Default",
      "pbrMetallicRoughness": {
        "baseColorTexture": {
          "index": 0
        },
        "baseColorFactor": [
          1,
          1,
          1,
          1
        ],
        "metallicFactor": 0,
        "roughnessFactor": 0.99
      },
      "emissiveFactor": [
        0,
        0,
        0
      ],
      "alphaMode": "OPAQUE",
      "doubleSided": false
    },
    {
      "name": "02___Default",
      "pbrMetallicRoughness": {
        "baseColorTexture": {
          "index": 1
        },
        "baseColorFactor": [
          1,
          1,
          1,
          1
        ],
        "metallicFactor": 0,
        "roughnessFactor": 0.99
      },
      "emissiveFactor": [
        0,
        0,
        0
      ],
      "alphaMode": "OPAQUE",
      "doubleSided": false
    },
    {
      "name": "03___Default",
      "pbrMetallicRoughness": {
        "baseColorTexture": {
          "index": 2
        },
        "baseColorFactor": [
          1,
          1,
          1,
          1
        ],
        "metallicFactor": 0,
        "roughnessFactor": 0.99
      },
      "emissiveFactor": [
        0,
        0,
        0
      ],
      "alphaMode": "OPAQUE",
      "doubleSided": false
    }
  ],
  "meshes": [
    {
      "name": "Box003_1",
      "primitives": [
        {
          "attributes": {
            "POSITION": 0,
            "NORMAL": 1,
            "TEXCOORD_0": 2
          },
          "indices": 3,
          "material": 0,
          "mode": 4
        }
      ]
    },
    {
      "name": "Box002_1",
      "primitives": [
        {
          "attributes": {
            "POSITION": 4,
            "NORMAL": 5,
            "TEXCOORD_0": 6
          },
          "indices": 7,
          "material": 1,
          "mode": 4
        }
      ]
    },
    {
      "name": "Box001_1",
      "primitives": [
        {
          "attributes": {
            "POSITION": 8,
            "NORMAL": 9,
            "TEXCOORD_0": 10
          },
          "indices": 11,
          "material": 2,
          "mode": 4
        }
      ]
    },
    {
      "name": "Text003_1",
      "primitives": [
        {
          "attributes": {
            "POSITION": 12,
            "NORMAL": 13,
            "TEXCOORD_0": 14
          },
          "indices": 15,
          "material": 0,
          "mode": 4
        }
      ]
    },
    {
      "name": "Text001_1",
      "primitives": [
        {
          "attributes": {
            "POSITION": 16,
            "NORMAL": 17,
            "TEXCOORD_0": 18
          },
          "indices": 19,
          "material": 2,
          "mode": 4
        }
      ]
    },
    {
      "name": "Text002_1",
      "primitives": [
        {
          "attributes": {
            "POSITION": 20,
            "NORMAL": 21,
            "TEXCOORD_0": 22
          },
          "indices": 23,
          "material": 1,
          "mode": 4
        }
      ]
    }
  ],
  "nodes": [
    {
      "name": "Box003",
      "mesh": 0
    },
    {
      "name": "Box002",
      "mesh": 1
    },
    {
      "name": "Box001",
      "mesh": 2
    },
    {
      "name": "Text003",
      "mesh": 3
    },
    {
      "name": "Text001",
      "mesh": 4
    },
    {
      "name": "Text002",
      "mesh": 5
    }
  ],
  "samplers": [
    {
      "magFilter": 9729,
      "minFilter": 9986,
      "wrapS": 10497,
      "wrapT": 10497
    }
  ],
  "scene": 0,
  "scenes": [
    {
      "nodes": [
        0,
        1,
        2,
        3,
        4,
        5
      ]
    }
  ],
  "textures": [
    {
      "name": "yellow",
      "sampler": 0,
      "source": 0
    },
    {
      "name": "lv",
      "sampler": 0,
      "source": 1
    },
    {
      "name": "hs",
      "sampler": 0,
      "source": 2
    }
  ]
}
