{
  "accessors": [
    {
      "name": "Rectangle008_1_0_positions",
      "componentType": 5126,
      "count": 172,
      "min": [
        0.6424999833106995,
        2.3334999084472656,
        0.6455000042915344
      ],
      "max": [
        0.7282000184059143,
        2.6033999919891357,
        0.7311000227928162
      ],
      "type": "VEC3",
      "bufferView": 0,
      "byteOffset": 0
    },
    {
      "name": "Rectangle008_1_0_normals",
      "componentType": 5126,
      "count": 172,
      "min": [
        -0.7071067690849304,
        -0.9991055727005005,
        -0.7071067690849304
      ],
      "max": [
        0.9972594380378723,
        0.9991055727005005,
        0.997255802154541
      ],
      "type": "VEC3",
      "bufferView": 1,
      "byteOffset": 0
    },
    {
      "name": "Rectangle008_1_0_texcoords",
      "componentType": 5126,
      "count": 172,
      "min": [
        1.2409000396728516,
        0.48969998955726624
      ],
      "max": [
        1.2760000228881836,
        0.5128999948501587
      ],
      "type": "VEC2",
      "bufferView": 2,
      "byteOffset": 0
    },
    {
      "name": "Rectangle008_1_0_indices",
      "componentType": 5123,
      "count": 876,
      "min": [
        0
      ],
      "max": [
        171
      ],
      "type": "SCALAR",
      "bufferView": 3,
      "byteOffset": 0
    },
    {
      "name": "Rectangle006_1_0_positions",
      "componentType": 5126,
      "count": 172,
      "min": [
        0.9207000136375427,
        2.3334999084472656,
        -0.008999999612569809
      ],
      "max": [
        1.0206999778747559,
        2.6033999919891357,
        0.01489999983459711
      ],
      "type": "VEC3",
      "bufferView": 0,
      "byteOffset": 2064
    },
    {
      "name": "Rectangle006_1_0_normals",
      "componentType": 5126,
      "count": 172,
      "min": [
        -1,
        -0.999109148979187,
        -0.9973829984664917
      ],
      "max": [
        0.9975874423980713,
        0.999109148979187,
        0.9973829984664917
      ],
      "type": "VEC3",
      "bufferView": 1,
      "byteOffset": 2064
    },
    {
      "name": "Rectangle006_1_0_texcoords",
      "componentType": 5126,
      "count": 172,
      "min": [
        1.2409000396728516,
        0.48969998955726624
      ],
      "max": [
        1.2760000228881836,
        0.5128999948501587
      ],
      "type": "VEC2",
      "bufferView": 2,
      "byteOffset": 1376
    },
    {
      "name": "Rectangle006_1_0_indices",
      "componentType": 5123,
      "count": 876,
      "min": [
        0
      ],
      "max": [
        171
      ],
      "type": "SCALAR",
      "bufferView": 3,
      "byteOffset": 1752
    },
    {
      "name": "Rectangle007_1_0_positions",
      "componentType": 5126,
      "count": 172,
      "min": [
        -0.7282000184059143,
        2.3334999084472656,
        -0.7251999974250793
      ],
      "max": [
        -0.6424999833106995,
        2.6033999919891357,
        -0.6395999789237976
      ],
      "type": "VEC3",
      "bufferView": 0,
      "byteOffset": 4128
    },
    {
      "name": "Rectangle007_1_0_normals",
      "componentType": 5126,
      "count": 172,
      "min": [
        -0.997255802154541,
        -0.9991055727005005,
        -0.9972594380378723
      ],
      "max": [
        0.7071067690849304,
        0.9991055727005005,
        0.7071067690849304
      ],
      "type": "VEC3",
      "bufferView": 1,
      "byteOffset": 4128
    },
    {
      "name": "Rectangle007_1_0_texcoords",
      "componentType": 5126,
      "count": 172,
      "min": [
        1.2409000396728516,
        0.48969998955726624
      ],
      "max": [
        1.2760000228881836,
        0.5128999948501587
      ],
      "type": "VEC2",
      "bufferView": 2,
      "byteOffset": 2752
    },
    {
      "name": "Rectangle007_1_0_indices",
      "componentType": 5123,
      "count": 876,
      "min": [
        0
      ],
      "max": [
        171
      ],
      "type": "SCALAR",
      "bufferView": 3,
      "byteOffset": 3504
    },
    {
      "name": "Rectangle002_1_0_positions",
      "componentType": 5126,
      "count": 172,
      "min": [
        -0.012000000104308128,
        2.3334999084472656,
        -1.017699956893921
      ],
      "max": [
        0.012000000104308128,
        2.6033999919891357,
        -0.9176999926567078
      ],
      "type": "VEC3",
      "bufferView": 0,
      "byteOffset": 6192
    },
    {
      "name": "Rectangle002_1_0_normals",
      "componentType": 5126,
      "count": 172,
      "min": [
        -0.9973829984664917,
        -0.999109148979187,
        -0.9975874423980713
      ],
      "max": [
        0.9973829984664917,
        0.999109148979187,
        1
      ],
      "type": "VEC3",
      "bufferView": 1,
      "byteOffset": 6192
    },
    {
      "name": "Rectangle002_1_0_texcoords",
      "componentType": 5126,
      "count": 172,
      "min": [
        1.2409000396728516,
        0.48969998955726624
      ],
      "max": [
        1.2760000228881836,
        0.5128999948501587
      ],
      "type": "VEC2",
      "bufferView": 2,
      "byteOffset": 4128
    },
    {
      "name": "Rectangle002_1_0_indices",
      "componentType": 5123,
      "count": 876,
      "min": [
        0
      ],
      "max": [
        171
      ],
      "type": "SCALAR",
      "bufferView": 3,
      "byteOffset": 5256
    },
    {
      "name": "Rectangle001_1_0_positions",
      "componentType": 5126,
      "count": 172,
      "min": [
        -0.017899999395012856,
        2.3334999084472656,
        0.9236000180244446
      ],
      "max": [
        0.015799999237060547,
        2.6033999919891357,
        1.0235999822616577
      ],
      "type": "VEC3",
      "bufferView": 0,
      "byteOffset": 8256
    },
    {
      "name": "Rectangle001_1_0_normals",
      "componentType": 5126,
      "count": 172,
      "min": [
        -0.9973829984664917,
        -0.999109148979187,
        -1
      ],
      "max": [
        0.9973829984664917,
        0.999109148979187,
        0.9975874423980713
      ],
      "type": "VEC3",
      "bufferView": 1,
      "byteOffset": 8256
    },
    {
      "name": "Rectangle001_1_0_texcoords",
      "componentType": 5126,
      "count": 172,
      "min": [
        1.2409000396728516,
        0.48969998955726624
      ],
      "max": [
        1.2760000228881836,
        0.5128999948501587
      ],
      "type": "VEC2",
      "bufferView": 2,
      "byteOffset": 5504
    },
    {
      "name": "Rectangle001_1_0_indices",
      "componentType": 5123,
      "count": 876,
      "min": [
        0
      ],
      "max": [
        171
      ],
      "type": "SCALAR",
      "bufferView": 3,
      "byteOffset": 7008
    },
    {
      "name": "Rectangle003_1_0_positions",
      "componentType": 5126,
      "count": 172,
      "min": [
        -0.7282000184059143,
        2.3334999084472656,
        0.6455000042915344
      ],
      "max": [
        -0.6424999833106995,
        2.6033999919891357,
        0.7311000227928162
      ],
      "type": "VEC3",
      "bufferView": 0,
      "byteOffset": 10320
    },
    {
      "name": "Rectangle003_1_0_normals",
      "componentType": 5126,
      "count": 172,
      "min": [
        -0.9972594380378723,
        -0.9991055727005005,
        -0.7071067690849304
      ],
      "max": [
        0.7071067690849304,
        0.9991055727005005,
        0.997255802154541
      ],
      "type": "VEC3",
      "bufferView": 1,
      "byteOffset": 10320
    },
    {
      "name": "Rectangle003_1_0_texcoords",
      "componentType": 5126,
      "count": 172,
      "min": [
        1.2409000396728516,
        0.48969998955726624
      ],
      "max": [
        1.2760000228881836,
        0.5128999948501587
      ],
      "type": "VEC2",
      "bufferView": 2,
      "byteOffset": 6880
    },
    {
      "name": "Rectangle003_1_0_indices",
      "componentType": 5123,
      "count": 876,
      "min": [
        0
      ],
      "max": [
        171
      ],
      "type": "SCALAR",
      "bufferView": 3,
      "byteOffset": 8760
    },
    {
      "name": "Rectangle004_1_0_positions",
      "componentType": 5126,
      "count": 172,
      "min": [
        0.6424999833106995,
        2.3334999084472656,
        -0.7251999974250793
      ],
      "max": [
        0.7282000184059143,
        2.6033999919891357,
        -0.6395999789237976
      ],
      "type": "VEC3",
      "bufferView": 0,
      "byteOffset": 12384
    },
    {
      "name": "Rectangle004_1_0_normals",
      "componentType": 5126,
      "count": 172,
      "min": [
        -0.7071067690849304,
        -0.9991055727005005,
        -0.9972594380378723
      ],
      "max": [
        0.997255802154541,
        0.9991055727005005,
        0.7071067690849304
      ],
      "type": "VEC3",
      "bufferView": 1,
      "byteOffset": 12384
    },
    {
      "name": "Rectangle004_1_0_texcoords",
      "componentType": 5126,
      "count": 172,
      "min": [
        1.2409000396728516,
        0.48969998955726624
      ],
      "max": [
        1.2760000228881836,
        0.5128999948501587
      ],
      "type": "VEC2",
      "bufferView": 2,
      "byteOffset": 8256
    },
    {
      "name": "Rectangle004_1_0_indices",
      "componentType": 5123,
      "count": 876,
      "min": [
        0
      ],
      "max": [
        171
      ],
      "type": "SCALAR",
      "bufferView": 3,
      "byteOffset": 10512
    },
    {
      "name": "Rectangle005_1_0_positions",
      "componentType": 5126,
      "count": 172,
      "min": [
        -1.0206999778747559,
        2.3334999084472656,
        -0.008999999612569809
      ],
      "max": [
        -0.9207000136375427,
        2.6033999919891357,
        0.01489999983459711
      ],
      "type": "VEC3",
      "bufferView": 0,
      "byteOffset": 14448
    },
    {
      "name": "Rectangle005_1_0_normals",
      "componentType": 5126,
      "count": 172,
      "min": [
        -0.9975874423980713,
        -0.999109148979187,
        -0.9973829984664917
      ],
      "max": [
        1,
        0.999109148979187,
        0.9973829984664917
      ],
      "type": "VEC3",
      "bufferView": 1,
      "byteOffset": 14448
    },
    {
      "name": "Rectangle005_1_0_texcoords",
      "componentType": 5126,
      "count": 172,
      "min": [
        1.2409000396728516,
        0.48969998955726624
      ],
      "max": [
        1.2760000228881836,
        0.5128999948501587
      ],
      "type": "VEC2",
      "bufferView": 2,
      "byteOffset": 9632
    },
    {
      "name": "Rectangle005_1_0_indices",
      "componentType": 5123,
      "count": 876,
      "min": [
        0
      ],
      "max": [
        171
      ],
      "type": "SCALAR",
      "bufferView": 3,
      "byteOffset": 12264
    },
    {
      "name": "Circle001_1_0_positions",
      "componentType": 5126,
      "count": 3485,
      "min": [
        -1,
        -0.012799999676644802,
        -1
      ],
      "max": [
        1,
        2.6982998847961426,
        1
      ],
      "type": "VEC3",
      "bufferView": 0,
      "byteOffset": 16512
    },
    {
      "name": "Circle001_1_0_normals",
      "componentType": 5126,
      "count": 3485,
      "min": [
        -0.9934115409851074,
        -0.6707907319068909,
        -0.9934115409851074
      ],
      "max": [
        0.9934115409851074,
        1,
        0.9934115409851074
      ],
      "type": "VEC3",
      "bufferView": 1,
      "byteOffset": 16512
    },
    {
      "name": "Circle001_1_0_texcoords",
      "componentType": 5126,
      "count": 3485,
      "min": [
        0.023499999195337296,
        0.0019000000320374966
      ],
      "max": [
        0.9764999747276306,
        0.9980999827384949
      ],
      "type": "VEC2",
      "bufferView": 2,
      "byteOffset": 11008
    },
    {
      "name": "Circle001_1_0_indices",
      "componentType": 5123,
      "count": 6141,
      "min": [
        0
      ],
      "max": [
        3484
      ],
      "type": "SCALAR",
      "bufferView": 3,
      "byteOffset": 14016
    },
    {
      "name": "Circle001_1_1_positions",
      "componentType": 5126,
      "count": 4340,
      "min": [
        -0.9523000121116638,
        -0.012799999676644802,
        -0.9835000038146973
      ],
      "max": [
        1,
        2.390399932861328,
        0.9211999773979187
      ],
      "type": "VEC3",
      "bufferView": 0,
      "byteOffset": 58332
    },
    {
      "name": "Circle001_1_1_normals",
      "componentType": 5126,
      "count": 4340,
      "min": [
        -0.9993098974227905,
        -0.9984509348869324,
        -0.9983283281326294
      ],
      "max": [
        0.9940670728683472,
        0.9945176243782043,
        0.9993127584457397
      ],
      "type": "VEC3",
      "bufferView": 1,
      "byteOffset": 58332
    },
    {
      "name": "Circle001_1_1_texcoords",
      "componentType": 5126,
      "count": 4340,
      "min": [
        0.06350000202655792,
        0.05820000171661377
      ],
      "max": [
        0.9365000128746033,
        0.9417999982833862
      ],
      "type": "VEC2",
      "bufferView": 2,
      "byteOffset": 38888
    },
    {
      "name": "Circle001_1_1_indices",
      "componentType": 5123,
      "count": 16314,
      "min": [
        0
      ],
      "max": [
        4339
      ],
      "type": "SCALAR",
      "bufferView": 3,
      "byteOffset": 26300
    }
  ],
  "asset": {
    "generator": "obj2gltf",
    "version": "2.0"
  },
  "buffers": [
    {
      "name": "11",
      "byteLength": 559060,
      "uri": "data:application/octet-stream;base64,"
    }
  ],
  "bufferViews": [
    {
      "name": "bufferView_0",
      "buffer": 0,
      "byteLength": 110412,
      "byteOffset": 0,
      "byteStride": 12,
      "target": 34962
    },
    {
      "name": "bufferView_1",
      "buffer": 0,
      "byteLength": 110412,
      "byteOffset": 110412,
      "byteStride": 12,
      "target": 34962
    },
    {
      "name": "bufferView_2",
      "buffer": 0,
      "byteLength": 73608,
      "byteOffset": 220824,
      "byteStride": 8,
      "target": 34962
    },
    {
      "name": "bufferView_3",
      "buffer": 0,
      "byteLength": 58928,
      "byteOffset": 294432,
      "target": 34963
    },
    {
      "buffer": 0,
      "byteOffset": 353360,
      "byteLength": 98331
    },
    {
      "buffer": 0,
      "byteOffset": 451691,
      "byteLength": 107369
    }
  ],
  "images": [
    {
      "name": "3",
      "mimeType": "image/jpeg",
      "bufferView": 4
    },
    {
      "name": "1",
      "mimeType": "image/jpeg",
      "bufferView": 5
    }
  ],
  "materials": [
    {
      "name": "01___Default",
      "pbrMetallicRoughness": {
        "baseColorTexture": {
          "index": 0
        },
        "baseColorFactor": [
          1,
          1,
          1,
          1
        ],
        "metallicFactor": 0,
        "roughnessFactor": 1
      },
      "emissiveFactor": [
        0,
        0,
        0
      ],
      "alphaMode": "OPAQUE",
      "doubleSided": false
    },
    {
      "name": "dshs",
      "pbrMetallicRoughness": {
        "baseColorTexture": {
          "index": 1
        },
        "baseColorFactor": [
          1,
          1,
          1,
          1
        ],
        "metallicFactor": 0,
        "roughnessFactor": 0.983
      },
      "emissiveFactor": [
        0,
        0,
        0
      ],
      "alphaMode": "OPAQUE",
      "doubleSided": false
    }
  ],
  "meshes": [
    {
      "name": "Rectangle008_1",
      "primitives": [
        {
          "attributes": {
            "POSITION": 0,
            "NORMAL": 1,
            "TEXCOORD_0": 2
          },
          "indices": 3,
          "material": 0,
          "mode": 4
        }
      ]
    },
    {
      "name": "Rectangle006_1",
      "primitives": [
        {
          "attributes": {
            "POSITION": 4,
            "NORMAL": 5,
            "TEXCOORD_0": 6
          },
          "indices": 7,
          "material": 0,
          "mode": 4
        }
      ]
    },
    {
      "name": "Rectangle007_1",
      "primitives": [
        {
          "attributes": {
            "POSITION": 8,
            "NORMAL": 9,
            "TEXCOORD_0": 10
          },
          "indices": 11,
          "material": 0,
          "mode": 4
        }
      ]
    },
    {
      "name": "Rectangle002_1",
      "primitives": [
        {
          "attributes": {
            "POSITION": 12,
            "NORMAL": 13,
            "TEXCOORD_0": 14
          },
          "indices": 15,
          "material": 0,
          "mode": 4
        }
      ]
    },
    {
      "name": "Rectangle001_1",
      "primitives": [
        {
          "attributes": {
            "POSITION": 16,
            "NORMAL": 17,
            "TEXCOORD_0": 18
          },
          "indices": 19,
          "material": 0,
          "mode": 4
        }
      ]
    },
    {
      "name": "Rectangle003_1",
      "primitives": [
        {
          "attributes": {
            "POSITION": 20,
            "NORMAL": 21,
            "TEXCOORD_0": 22
          },
          "indices": 23,
          "material": 0,
          "mode": 4
        }
      ]
    },
    {
      "name": "Rectangle004_1",
      "primitives": [
        {
          "attributes": {
            "POSITION": 24,
            "NORMAL": 25,
            "TEXCOORD_0": 26
          },
          "indices": 27,
          "material": 0,
          "mode": 4
        }
      ]
    },
    {
      "name": "Rectangle005_1",
      "primitives": [
        {
          "attributes": {
            "POSITION": 28,
            "NORMAL": 29,
            "TEXCOORD_0": 30
          },
          "indices": 31,
          "material": 0,
          "mode": 4
        }
      ]
    },
    {
      "name": "Circle001_1",
      "primitives": [
        {
          "attributes": {
            "POSITION": 32,
            "NORMAL": 33,
            "TEXCOORD_0": 34
          },
          "indices": 35,
          "material": 0,
          "mode": 4
        },
        {
          "attributes": {
            "POSITION": 36,
            "NORMAL": 37,
            "TEXCOORD_0": 38
          },
          "indices": 39,
          "material": 1,
          "mode": 4
        }
      ]
    }
  ],
  "nodes": [
    {
      "name": "Rectangle008",
      "mesh": 0
    },
    {
      "name": "Rectangle006",
      "mesh": 1
    },
    {
      "name": "Rectangle007",
      "mesh": 2
    },
    {
      "name": "Rectangle002",
      "mesh": 3
    },
    {
      "name": "Rectangle001",
      "mesh": 4
    },
    {
      "name": "Rectangle003",
      "mesh": 5
    },
    {
      "name": "Rectangle004",
      "mesh": 6
    },
    {
      "name": "Rectangle005",
      "mesh": 7
    },
    {
      "name": "Circle001",
      "mesh": 8
    }
  ],
  "samplers": [
    {
      "magFilter": 9729,
      "minFilter": 9986,
      "wrapS": 10497,
      "wrapT": 10497
    }
  ],
  "scene": 0,
  "scenes": [
    {
      "nodes": [
        0,
        1,
        2,
        3,
        4,
        5,
        6,
        7,
        8
      ]
    }
  ],
  "textures": [
    {
      "name": "3",
      "sampler": 0,
      "source": 0
    },
    {
      "name": "1",
      "sampler": 0,
      "source": 1
    }
  ]
}
